<svg width="80" height="30" viewBox="0 0 80 30" fill="none" xmlns="http://www.w3.org/2000/svg">
<path d="M8.07188 24.293H22.4078V29H0.747658V25.5625L14.8102 5.30859H0.767189V0.5625H22.0953V3.92188L8.07188 24.293ZM38.2469 23.1406H27.9734L26.0203 29H19.7898L30.3758 0.5625H35.8055L46.45 29H40.2195L38.2469 23.1406ZM29.5555 18.3945H36.6648L33.0906 7.75L29.5555 18.3945Z" fill="black"/>
<path d="M53.8125 17.5938L50.7656 20.875V29H44.9062V0.5625H50.7656V13.4531L53.3438 9.91797L60.5898 0.5625H67.7969L57.6992 13.1992L68.0898 29H61.1172L53.8125 17.5938ZM72.3273 29H66.468V0.5625H72.3273V29ZM73.4984 26.2266C73.4984 25.3281 73.7979 24.599 74.3969 24.0391C75.0089 23.4792 75.7706 23.1992 76.682 23.1992C77.6065 23.1992 78.3682 23.4792 78.9672 24.0391C79.5792 24.599 79.8852 25.3281 79.8852 26.2266C79.8852 27.112 79.5857 27.8346 78.9867 28.3945C78.3878 28.9414 77.6195 29.2148 76.682 29.2148C75.7576 29.2148 74.9958 28.9414 74.3969 28.3945C73.7979 27.8346 73.4984 27.112 73.4984 26.2266Z" fill="#FFC700"/>
</svg>
